<svg width="40" height="40" viewBox="0 0 40 40" fill="none" xmlns="http://www.w3.org/2000/svg">
<path d="M0 20C0 8.95431 8.95431 0 20 0C31.0457 0 40 8.95431 40 20C40 31.0457 31.0457 40 20 40C8.95431 40 0 31.0457 0 20Z" fill="#E1306C"/>
<g clip-path="url(#clip0_12_130)">
<path d="M20.0036 15.957C17.7322 15.957 15.9 17.7605 15.9 19.9965C15.9 22.2324 17.7322 24.0359 20.0036 24.0359C22.275 24.0359 24.1072 22.2324 24.1072 19.9965C24.1072 17.7605 22.275 15.957 20.0036 15.957ZM20.0036 22.6227C18.5357 22.6227 17.3357 21.4449 17.3357 19.9965C17.3357 18.548 18.5322 17.3703 20.0036 17.3703C21.475 17.3703 22.6714 18.548 22.6714 19.9965C22.6714 21.4449 21.4714 22.6227 20.0036 22.6227ZM25.2322 15.7918C25.2322 16.3156 24.8036 16.734 24.275 16.734C23.7429 16.734 23.3179 16.3121 23.3179 15.7918C23.3179 15.2715 23.7464 14.8496 24.275 14.8496C24.8036 14.8496 25.2322 15.2715 25.2322 15.7918ZM27.95 16.748C27.8893 15.4859 27.5964 14.368 26.6572 13.4469C25.7214 12.5258 24.5857 12.2375 23.3036 12.1742C21.9822 12.1004 18.0214 12.1004 16.7 12.1742C15.4214 12.234 14.2857 12.5223 13.3464 13.4434C12.4072 14.3645 12.1179 15.4824 12.0536 16.7445C11.9786 18.0453 11.9786 21.9441 12.0536 23.2449C12.1143 24.507 12.4072 25.625 13.3464 26.5461C14.2857 27.4672 15.4179 27.7555 16.7 27.8188C18.0214 27.8926 21.9822 27.8926 23.3036 27.8188C24.5857 27.759 25.7214 27.4707 26.6572 26.5461C27.5929 25.625 27.8857 24.507 27.95 23.2449C28.025 21.9441 28.025 18.0488 27.95 16.748ZM26.2429 24.6406C25.9643 25.3297 25.425 25.8605 24.7214 26.1383C23.6679 26.5496 21.1679 26.4547 20.0036 26.4547C18.8393 26.4547 16.3357 26.5461 15.2857 26.1383C14.5857 25.8641 14.0464 25.3332 13.7643 24.6406C13.3464 23.6035 13.4429 21.1426 13.4429 19.9965C13.4429 18.8504 13.35 16.3859 13.7643 15.3523C14.0429 14.6633 14.5822 14.1324 15.2857 13.8547C16.3393 13.4434 18.8393 13.5383 20.0036 13.5383C21.1679 13.5383 23.6714 13.4469 24.7214 13.8547C25.4214 14.1289 25.9607 14.6598 26.2429 15.3523C26.6607 16.3895 26.5643 18.8504 26.5643 19.9965C26.5643 21.1426 26.6607 23.607 26.2429 24.6406Z" fill="white"/>
</g>
<defs>
<clipPath id="clip0_12_130">
<rect width="16" height="18" fill="white" transform="translate(12 11)"/>
</clipPath>
</defs>
</svg>
