<svg width="40" height="40" viewBox="0 0 40 40" fill="none" xmlns="http://www.w3.org/2000/svg">
<path d="M0 20C0 8.95431 8.95431 0 20 0V0C31.0457 0 40 8.95431 40 20V20C40 31.0457 31.0457 40 20 40V40C8.95431 40 0 31.0457 0 20V20Z" fill="#0077B5"/>
<g clip-path="url(#clip0_12_133)">
<path d="M14.9341 27.501H11.2903V15.8174H14.9341V27.501ZM13.1103 14.2236C11.9451 14.2236 11 13.2627 11 12.1025C11 11.5453 11.2223 11.0108 11.6181 10.6168C12.0138 10.2227 12.5506 10.0014 13.1103 10.0014C13.6699 10.0014 14.2067 10.2227 14.6024 10.6168C14.9982 11.0108 15.2205 11.5453 15.2205 12.1025C15.2205 13.2627 14.275 14.2236 13.1103 14.2236ZM28.5718 27.501H24.9358V21.8135C24.9358 20.458 24.9084 18.7197 23.0413 18.7197C21.1468 18.7197 20.8565 20.1924 20.8565 21.7158V27.501H17.2166V15.8174H20.7114V17.4111H20.7624C21.2488 16.4932 22.4372 15.5244 24.21 15.5244C27.8978 15.5244 28.5757 17.9424 28.5757 21.083V27.501H28.5718Z" fill="white"/>
</g>
<defs>
<clipPath id="clip0_12_133">
<rect width="17.5758" height="20" fill="white" transform="translate(11 10)"/>
</clipPath>
</defs>
</svg>
