<svg width="18" height="18" viewBox="0 0 18 18" fill="none" xmlns="http://www.w3.org/2000/svg">
<path d="M15.75 2.25V1.25H16.75V2.25H15.75ZM8.95711 10.4571C8.56658 10.8476 7.93342 10.8476 7.54289 10.4571C7.15237 10.0666 7.15237 9.43342 7.54289 9.04289L8.95711 10.4571ZM14.75 8.25V2.25H16.75V8.25H14.75ZM15.75 3.25H9.75V1.25H15.75V3.25ZM16.4571 2.95711L8.95711 10.4571L7.54289 9.04289L15.0429 1.54289L16.4571 2.95711Z" fill="#189AB4"/>
<path d="M15 11.25V11.25C15 11.947 15 12.2955 14.9424 12.5853C14.7056 13.7753 13.7753 14.7056 12.5853 14.9424C12.2955 15 11.947 15 11.25 15H9C6.17157 15 4.75736 15 3.87868 14.1213C3 13.2426 3 11.8284 3 9V6.75C3 6.05302 3 5.70453 3.05764 5.41473C3.29436 4.22466 4.22466 3.29436 5.41473 3.05764C5.70453 3 6.05302 3 6.75 3V3" stroke="#189AB4" stroke-width="2" stroke-linecap="round"/>
</svg>
